<svg width="31" height="31" viewBox="0 0 31 31" fill="none" xmlns="http://www.w3.org/2000/svg">
<path d="M15.5008 24.384C16.3499 24.384 17.0383 23.6957 17.0383 22.8466H13.9634C13.9634 23.6957 14.6517 24.384 15.5008 24.384Z" fill="white"/>
<path d="M15.6971 7.94873C14.1105 7.94898 10.7427 8.51101 9.71816 12.3037C9.22758 14.1197 9.23717 15.7043 9.24495 16.991C9.25752 19.0699 9.26539 20.3714 7.15186 20.6159V22.1993L23.8487 22.1995V20.6162C21.8326 20.3717 21.8401 19.0701 21.852 16.9912C21.8595 15.7044 21.8686 14.1198 21.4006 12.3037C20.4233 8.51103 17.2161 7.94873 15.6971 7.94873Z" fill="white"/>
<ellipse cx="15.5002" cy="7.9484" rx="1.15738" ry="1.15738" fill="white"/>
</svg>
