<svg width="20" height="20" viewBox="0 0 20 20" fill="none" xmlns="http://www.w3.org/2000/svg">
<path d="M17.3089 0H2.69541C1.98055 0 1.29496 0.28398 0.789468 0.789468C0.28398 1.29496 0 1.98055 0 2.69541V17.3089C0.00113431 18.023 0.285615 18.7075 0.79098 19.212C1.29635 19.7166 1.98129 20 2.69541 20H9.90153L9.91376 12.8526H8.05688C7.99945 12.8527 7.94257 12.8414 7.88948 12.8195C7.8364 12.7976 7.78814 12.7655 7.74748 12.7249C7.70681 12.6844 7.67453 12.6362 7.65248 12.5832C7.63043 12.5302 7.61904 12.4733 7.61896 12.4159L7.60979 10.1119C7.60954 10.0543 7.62069 9.99712 7.64259 9.94378C7.66449 9.89044 7.69671 9.84194 7.7374 9.80108C7.77809 9.76022 7.82645 9.7278 7.8797 9.70568C7.93295 9.68356 7.99004 9.67217 8.04771 9.67217H9.90153V7.44587C9.90153 4.86239 11.4795 3.45566 13.7841 3.45566H15.6752C15.7914 3.45582 15.9028 3.50209 15.9849 3.58432C16.067 3.66654 16.1132 3.77799 16.1132 3.89419V5.8367C16.1132 5.95284 16.067 6.06423 15.9849 6.14635C15.9028 6.22848 15.7914 6.27462 15.6752 6.27462H14.5132C13.2593 6.27462 13.0165 6.87034 13.0165 7.74251V9.66973H15.7688C15.8307 9.66974 15.8918 9.68285 15.9483 9.70818C16.0047 9.73351 16.0552 9.7705 16.0963 9.81671C16.1374 9.86292 16.1683 9.91731 16.1869 9.97631C16.2055 10.0353 16.2114 10.0976 16.2043 10.159L15.9309 12.463C15.9183 12.5695 15.8671 12.6677 15.7869 12.7389C15.7068 12.8102 15.6033 12.8495 15.496 12.8495H13.0312L13.0183 20H17.3089C18.0223 19.9989 18.7061 19.715 19.2105 19.2105C19.715 18.7061 19.9989 18.0223 20 17.3089V2.69541C20 1.98129 19.7166 1.29635 19.212 0.79098C18.7075 0.285615 18.023 0.00113431 17.3089 0Z" fill="#808080"/>
</svg>
