<svg width="19" height="20" viewBox="0 0 19 20" fill="none" xmlns="http://www.w3.org/2000/svg">
<path d="M16.8083 20H2.19168C1.90377 19.9999 1.61869 19.9401 1.35273 19.824C1.08677 19.708 0.845137 19.5379 0.641621 19.3235C0.438105 19.1091 0.276694 18.8547 0.166604 18.5746C0.0565148 18.2946 -9.73563e-05 17.9945 1.25678e-07 17.6914V2.30703C1.25678e-07 1.69517 0.230909 1.10837 0.641928 0.675714C1.05295 0.243062 1.61041 0 2.19168 0L16.8083 0C17.3896 0 17.9471 0.243062 18.3581 0.675714C18.7691 1.10837 19 1.69517 19 2.30703V17.6914C19.0001 17.9945 18.9435 18.2946 18.8334 18.5746C18.7233 18.8547 18.5619 19.1091 18.3584 19.3235C18.1549 19.5379 17.9132 19.708 17.6473 19.824C17.3813 19.9401 17.0962 19.9999 16.8083 20ZM9.5 6.15391C8.77735 6.15391 8.07093 6.37948 7.47006 6.80209C6.8692 7.2247 6.40089 7.82538 6.12434 8.52816C5.84779 9.23095 5.77544 10.0043 5.91642 10.7503C6.0574 11.4964 6.40539 12.1817 6.91638 12.7196C7.42737 13.2575 8.07842 13.6238 8.78718 13.7722C9.49595 13.9206 10.2306 13.8444 10.8982 13.5533C11.5659 13.2622 12.1365 12.7693 12.538 12.1368C12.9395 11.5043 13.1538 10.7607 13.1538 10C13.1539 9.49489 13.0594 8.99472 12.8759 8.52804C12.6923 8.06137 12.4231 7.63734 12.0838 7.28017C11.7445 6.92301 11.3417 6.63971 10.8984 6.44646C10.455 6.25322 9.97985 6.1538 9.5 6.15391ZM16.8083 3.07656C16.8083 2.97544 16.7894 2.87531 16.7526 2.7819C16.7158 2.68848 16.6619 2.60361 16.5939 2.53215C16.526 2.46068 16.4453 2.40401 16.3565 2.36538C16.2677 2.32676 16.1726 2.30693 16.0765 2.30703H13.8848C13.691 2.30703 13.505 2.38811 13.3679 2.53242C13.2308 2.67674 13.1538 2.87247 13.1538 3.07656V5.38437C13.1538 5.58847 13.2308 5.7842 13.3679 5.92852C13.505 6.07283 13.691 6.15391 13.8848 6.15391H16.0765C16.1726 6.15401 16.2677 6.13418 16.3565 6.09555C16.4453 6.05693 16.526 6.00026 16.5939 5.92879C16.6619 5.85732 16.7158 5.77246 16.7526 5.67904C16.7894 5.58563 16.8083 5.4855 16.8083 5.38437V3.07656ZM16.8083 8.46094H15.154C15.3815 9.3715 15.4074 10.3249 15.2299 11.2476C15.0523 12.1704 14.676 13.038 14.1298 13.7836C13.5837 14.5292 12.8823 15.133 12.0796 15.5484C11.277 15.9639 10.3944 16.1799 9.5 16.1799C8.60556 16.1799 7.72305 15.9639 6.92039 15.5484C6.11773 15.133 5.41633 14.5292 4.87018 13.7836C4.32403 13.038 3.94769 12.1704 3.77014 11.2476C3.59258 10.3249 3.61854 9.3715 3.84602 8.46094H2.19168V16.9227C2.19178 17.0237 2.21078 17.1238 2.24761 17.2171C2.28444 17.3104 2.33837 17.3952 2.40633 17.4666C2.47428 17.538 2.55492 17.5946 2.64366 17.6331C2.73239 17.6717 2.82747 17.6915 2.92348 17.6914H16.0765C16.1725 17.6915 16.2676 17.6717 16.3563 17.6331C16.4451 17.5946 16.5257 17.538 16.5937 17.4666C16.6616 17.3952 16.7156 17.3104 16.7524 17.2171C16.7892 17.1238 16.8082 17.0237 16.8083 16.9227V8.46094Z" fill="#808080"/>
</svg>
