<svg width="16" height="23" viewBox="0 0 16 23" fill="none" xmlns="http://www.w3.org/2000/svg">
<path fill-rule="evenodd" clip-rule="evenodd" d="M8 20C12.4183 20 16 16.4183 16 12C16 7.58172 12.4183 4 8 4C3.58172 4 0 7.58172 0 12C0 16.4183 3.58172 20 8 20ZM7.99985 17.0909C7.53125 17.0909 7.15137 16.7111 7.15137 16.2425V12.8486H3.75745C3.28884 12.8486 2.90896 12.4687 2.90896 12.0001C2.90896 11.5315 3.28884 11.1516 3.75745 11.1516H7.15137V7.75761C7.15137 7.289 7.53125 6.90912 7.99985 6.90912C8.46846 6.90912 8.84834 7.289 8.84834 7.75761V11.1516H12.2423C12.7109 11.1516 13.0908 11.5315 13.0908 12.0001C13.0908 12.4687 12.7109 12.8486 12.2423 12.8486H8.84834V16.2425C8.84834 16.7111 8.46846 17.0909 7.99985 17.0909Z" fill="#E5E5E5"/>
</svg>
