<svg width="24" height="20" viewBox="0 0 24 20" fill="none" xmlns="http://www.w3.org/2000/svg">
<path d="M24 2.35765C23.1013 2.76666 22.1478 3.03481 21.1715 3.15314C22.1983 2.52138 22.9661 1.52781 23.3316 0.357851C22.3658 0.948746 21.3084 1.36525 20.2054 1.58926C19.4625 0.780381 18.4807 0.245072 17.4117 0.066054C16.3427 -0.112964 15.2459 0.074273 14.291 0.598833C13.3361 1.12339 12.5761 1.95607 12.1284 2.96819C11.6808 3.98031 11.5705 5.11553 11.8146 6.19841C9.85672 6.09578 7.94175 5.57189 6.19396 4.66074C4.44616 3.74959 2.90459 2.47154 1.66928 0.90952C1.04115 2.02191 0.849121 3.33789 1.13218 4.59028C1.41524 5.84266 2.15218 6.93757 3.19336 7.65269C2.41024 7.62909 1.64402 7.41332 0.958848 7.02345C0.958848 7.04438 0.958848 7.06655 0.958848 7.08748C0.959712 8.25552 1.35466 9.38723 2.07659 10.2903C2.79851 11.1934 3.80289 11.8121 4.91905 12.0414C4.19388 12.2434 3.43343 12.2733 2.69533 12.1289C3.00977 13.1328 3.62224 14.0107 4.44704 14.6398C5.27183 15.2689 6.26766 15.6176 7.29517 15.6371C5.54982 17.0433 3.39388 17.8054 1.17486 17.8007C0.782212 17.8006 0.389913 17.7767 0 17.7293C2.25132 19.2145 4.87192 20.0028 7.54838 20C16.6052 20 21.5579 12.3012 21.5579 5.62334C21.5579 5.40415 21.5579 5.18619 21.5447 4.96946C22.5078 4.25541 23.3392 3.37099 24 2.35765Z" fill="#808080"/>
</svg>
