<svg width="34" height="26" viewBox="0 0 34 26" fill="none" xmlns="http://www.w3.org/2000/svg">
<path d="M25.3977 3.61321H9.32714C6.17284 3.61321 3.61719 4.2084 3.61719 9.12289V16.8771C3.61719 21.7948 6.17445 22.3889 9.32714 22.3889H25.3977C28.552 22.3884 31.1066 21.637 31.1066 16.8771V9.12289C31.1066 4.39597 28.5509 3.61111 25.3977 3.61111V3.61321ZM21.5374 13.3767L14.0207 16.8347C13.9486 16.8686 13.8656 16.8733 13.7899 16.8477C13.7142 16.822 13.6521 16.7682 13.617 16.6979L13.5875 16.5717V9.43725C13.5881 9.38719 13.6018 9.3381 13.6272 9.29463C13.6527 9.25116 13.6891 9.21475 13.733 9.18885C13.777 9.16294 13.8269 9.14838 13.8782 9.14656C13.9295 9.14474 13.9804 9.15571 14.0261 9.17843L21.5427 12.8538C21.6133 12.8883 21.667 12.9488 21.6919 13.0218C21.7169 13.0949 21.7111 13.1747 21.6759 13.2436L21.5357 13.3778L21.5374 13.3767Z" fill="#808080"/>
</svg>
